<svg xmlns="http://www.w3.org/2000/svg" viewBox="-1046 32 135 30">
  <defs>
    <style>
      .cls-1 {
        fill: #a4ce4e;
      }

      .cls-2 {
        fill: #0090da;
      }

      .cls-3 {
        fill: #0061a0;
      }
    </style>
  </defs>
  <g id="Group_1308" data-name="Group 1308" transform="translate(-1046 32.018)">
    <path id="Path_20" data-name="Path 20" d="M248.945,25.44a2.422,2.422,0,0,1,0-4.84,2.35,2.35,0,0,1,2.34,2.42A2.409,2.409,0,0,1,248.945,25.44ZM183.2,40.962h4.14l.5-12.845,4.185,7.633h2.227l3.96-7.726.54,12.938h4.342l-.9-19.8h-4.14l-4.86,9.308-5-9.308h-4.1Zm33.255-4.212a9.419,9.419,0,0,1-1.463.838,5.975,5.975,0,0,1-2.61.489,3.689,3.689,0,0,1-2.565-.838,2.652,2.652,0,0,1-.967-1.978h9.585v-.721a11.17,11.17,0,0,0-.427-3.211,7.283,7.283,0,0,0-1.283-2.513,6.056,6.056,0,0,0-2.07-1.652,6.591,6.591,0,0,0-2.88-.605,6.941,6.941,0,0,0-2.925.605,6.487,6.487,0,0,0-2.182,1.629,7.351,7.351,0,0,0-1.373,2.35,8.493,8.493,0,0,0-.472,2.816,8.818,8.818,0,0,0,.495,3.048,6.523,6.523,0,0,0,1.463,2.35,6.7,6.7,0,0,0,2.34,1.536,8.231,8.231,0,0,0,3.1.558,9.783,9.783,0,0,0,2.295-.256,9.007,9.007,0,0,0,1.733-.582,5.731,5.731,0,0,0,1.192-.675c.315-.233.54-.4.7-.489Zm-7.6-4.212a2.605,2.605,0,0,1,.18-.908,3.3,3.3,0,0,1,.54-.838,2.877,2.877,0,0,1,.9-.628,3.055,3.055,0,0,1,1.26-.256,2.874,2.874,0,0,1,1.238.256,2.675,2.675,0,0,1,.855.628,2.711,2.711,0,0,1,.518.838,2.606,2.606,0,0,1,.18.908Zm23.625,8.424h12.6V37.308h-8.257V21.158h-4.343Zm14.4,0h4.14V27.046h-4.14Zm18.158-18.872a5.085,5.085,0,0,0-2.048-1.117,8.158,8.158,0,0,0-2.2-.326,5.984,5.984,0,0,0-2.025.349A5.225,5.225,0,0,0,257,22.043a5.021,5.021,0,0,0-1.238,1.769,6.31,6.31,0,0,0-.472,2.56v.721h-2.183v3.351h2.183V41.008h4.095V30.4h3.2V27.046h-3.2v-.768a2.314,2.314,0,0,1,.518-1.606,1.782,1.782,0,0,1,1.372-.558,3.265,3.265,0,0,1,1.057.186,3.134,3.134,0,0,1,.945.512ZM229.258,37.262a6.44,6.44,0,0,1-.855.512,2.642,2.642,0,0,1-1.08.233,1.351,1.351,0,0,1-1.215-.558,2.776,2.776,0,0,1-.383-1.559V30.4h3.465V27.046h-3.465V23.323h-4.14v3.723h-2.137V30.4h2.137v5.259a11.11,11.11,0,0,0,.248,2.374,4.481,4.481,0,0,0,.855,1.815,3.933,3.933,0,0,0,1.575,1.187,6.128,6.128,0,0,0,2.408.442,6.57,6.57,0,0,0,4.253-1.606ZM275,36.75a9.419,9.419,0,0,1-1.462.838,5.975,5.975,0,0,1-2.61.489,3.689,3.689,0,0,1-2.565-.838,2.652,2.652,0,0,1-.967-1.978h9.585v-.721a11.17,11.17,0,0,0-.427-3.211,7.282,7.282,0,0,0-1.283-2.513,6.055,6.055,0,0,0-2.07-1.652,6.591,6.591,0,0,0-2.88-.605,6.941,6.941,0,0,0-2.925.605,6.488,6.488,0,0,0-2.183,1.629,7.35,7.35,0,0,0-1.372,2.35,8.492,8.492,0,0,0-.473,2.816,8.818,8.818,0,0,0,.495,3.048,6.524,6.524,0,0,0,1.463,2.35,6.7,6.7,0,0,0,2.34,1.536,8.231,8.231,0,0,0,3.1.558,9.783,9.783,0,0,0,2.3-.256,9.007,9.007,0,0,0,1.732-.582,5.73,5.73,0,0,0,1.192-.675c.315-.233.54-.4.7-.489Zm-7.6-4.212a2.605,2.605,0,0,1,.18-.908,3.3,3.3,0,0,1,.54-.838,2.877,2.877,0,0,1,.9-.628,3.055,3.055,0,0,1,1.26-.256,2.874,2.874,0,0,1,1.238.256,2.674,2.674,0,0,1,.855.628,2.709,2.709,0,0,1,.518.838,2.6,2.6,0,0,1,.18.908Z" transform="translate(-141.98 -15.82)"/>
    <g id="Group_132" data-name="Group 132" transform="translate(0 -0.018)">
      <path id="XMLID_9_" class="cls-1" d="M70,9.713a27.146,27.146,0,0,1,5.175,16.01,26.509,26.509,0,0,1-.338,4.259h9.405a1.524,1.524,0,0,0,1.485-1.536V1.522A1.5,1.5,0,0,0,83.883.033,25.516,25.516,0,0,0,70,9.713Z" transform="translate(-54.25 0.018)"/>
      <path id="XMLID_3_" class="cls-2" d="M10.89,29.982a26.725,26.725,0,0,1-.338-4.259,27.146,27.146,0,0,1,5.175-16.01A25.515,25.515,0,0,0,1.845.033,1.5,1.5,0,0,0,0,1.522V28.446a1.51,1.51,0,0,0,1.485,1.536Z" transform="translate(0 0.018)"/>
      <path id="XMLID_1_" class="cls-3" d="M52.175,41.8A27.146,27.146,0,0,0,47,57.81a26.51,26.51,0,0,0,.337,4.259h9.7a26.724,26.724,0,0,0,.338-4.259A27.265,27.265,0,0,0,52.175,41.8Z" transform="translate(-36.425 -32.069)"/>
    </g>
  </g>
</svg>
